<svg width="410" height="404" viewBox="0 0 100 70" fill="none" xmlns="http://www.w3.org/2000/svg">
<g transform="translate(0 20)"> 
  <path fill="#ec7" d="M93.4 18.7c0 5-12 11-30 11-11 0-28-2-34-5-11.3 7-24 10-17-4-8-12 5-13 17-2 12-7 23-8.2 34-9 14-1 30 3 30 9z"/>
  <path fill="none" stroke="#666" stroke-linecap="round" stroke-linejoin="round" stroke-miterlimit="10" stroke-width="5" d="M91.4 16.7c0 5-12 11-30 11-11 0-28-2-34-5-11.3 7-24 10-17-4-8-12 5-13 17-2 12-7 23-8.2 34-9 14-1 30 3 30 9zm-15.5-2 4 4m0-4-4 4"/>
</g>
</svg>
